<svg width="146" height="34" viewBox="0 0 146 34" fill="none" xmlns="http://www.w3.org/2000/svg">
<g clip-path="url(#clip0_1_14)">
<path d="M9.59034 5.44694H14.369V0.976562H0V5.44694H4.81169V26.8849H9.59034V5.44694ZM32.1539 9.67507C30.1719 7.6931 27.8046 6.69117 25.0519 6.69117C22.2111 6.69117 19.7997 7.6931 17.8178 9.75219C15.8469 11.8112 14.8339 14.2996 14.8339 17.2175C14.8339 20.0913 15.8469 22.5356 17.8178 24.5176C19.7997 26.5325 22.2551 27.5455 25.0849 27.5455C27.1879 27.5455 29.1258 26.8849 30.8766 25.6077C32.6273 24.3194 33.8275 22.7338 34.411 20.7519H29.28C28.234 22.4586 26.7916 23.3064 24.9308 23.3064C23.7306 23.3064 22.6736 22.921 21.7046 22.1503C20.7357 21.3685 20.075 20.3996 19.7668 19.2325H34.8404C35.0276 18.3406 35.1047 17.5588 35.1047 16.8982C35.1047 14.1015 34.1357 11.7011 32.1538 9.67516L32.1539 9.67507ZM21.5945 12.1635C22.5965 11.3487 23.7636 10.9193 25.129 10.9193C26.4833 10.9193 27.6504 11.3487 28.6193 12.1635C29.5883 12.9783 30.2159 14.1014 30.5682 15.4998H19.6125C19.9208 14.1014 20.5815 13.0224 21.5945 12.1635H21.5945ZM66.2232 17.79L72.8296 26.8849H78.6874L70.8037 16.9752L77.7956 7.46194H72.4002L66.2232 16.5899V0.976609H61.5216V26.8849H66.2232V17.79L66.2232 17.79ZM96.3634 24.5176C98.3454 22.4916 99.3584 20.0472 99.3584 17.1734C99.3584 14.2996 98.3454 11.8553 96.3634 9.82925C94.3815 7.8143 91.9371 6.80132 89.0963 6.80132C86.2225 6.80132 83.7781 7.8143 81.7632 9.82925C79.7041 11.8883 78.6912 14.3437 78.6912 17.1734C78.6912 20.0142 79.7041 22.4586 81.7632 24.4735C83.7781 26.5325 86.1895 27.5455 89.0192 27.5455C91.893 27.5455 94.3484 26.5325 96.3634 24.5176H96.3634ZM92.9831 12.8572C94.1062 14.1014 94.6567 15.5438 94.6567 17.2505C94.6567 18.9571 94.1062 20.3995 93.0272 21.5667C91.9371 22.7339 90.6158 23.3064 89.0633 23.3064C87.4667 23.3064 86.1124 22.7338 85.0223 21.5667C83.9323 20.3995 83.3927 18.9241 83.3927 17.1734C83.3927 15.4998 83.9322 14.0684 85.0554 12.8572C86.1894 11.657 87.5107 11.0404 89.0633 11.0404C90.5717 11.0404 91.893 11.657 92.9831 12.8572ZM119.354 24.5176C121.336 22.4916 122.349 20.0472 122.349 17.1734C122.349 14.2996 121.336 11.8553 119.354 9.82925C117.372 7.8143 114.927 6.80132 112.087 6.80132C109.213 6.80132 106.769 7.8143 104.754 9.82925C102.695 11.8883 101.682 14.3437 101.682 17.1734C101.682 20.0142 102.695 22.4586 104.754 24.4735C106.769 26.5325 109.18 27.5455 112.01 27.5455C114.883 27.5455 117.339 26.5325 119.354 24.5176H119.354ZM115.974 12.8572C117.097 14.1014 117.647 15.5438 117.647 17.2505C117.647 18.9571 117.097 20.3995 116.018 21.5667C114.927 22.7339 113.606 23.3064 112.054 23.3064C110.457 23.3064 109.103 22.7338 108.013 21.5667C106.923 20.3995 106.383 18.9241 106.383 17.1734C106.383 15.4998 106.923 14.0684 108.046 12.8572C109.18 11.657 110.501 11.0404 112.054 11.0404C113.562 11.0404 114.883 11.657 115.974 12.8572ZM130.343 25.0571C131.311 25.9931 132.247 26.6537 133.095 27.006C133.998 27.3474 135.044 27.5455 136.288 27.5455C138.964 27.5455 141.298 26.5325 143.159 24.5176C145.064 22.4916 146 20.0142 146 17.0963C146 14.1785 145.064 11.7341 143.203 9.75219C141.375 7.77022 139.085 6.80127 136.321 6.80127C133.679 6.80127 131.543 7.77022 129.99 9.75219V7.46194H125.641V33.3703H130.343V25.0571H130.343ZM139.669 12.8242C140.748 14.0244 141.298 15.4668 141.298 17.1734C141.298 18.8801 140.748 20.3225 139.669 21.5227C138.535 22.7338 137.213 23.3064 135.661 23.3064C134.075 23.3064 132.754 22.7338 131.62 21.5227C130.541 20.3555 129.99 18.8801 129.99 17.1734C129.99 15.4667 130.541 13.9913 131.62 12.8242C132.754 11.624 134.075 11.0405 135.705 11.0405C137.213 11.0405 138.535 11.624 139.669 12.8242Z" fill="white"/>
<path d="M52.9103 18.4219C53.254 18.9009 53.5994 19.3783 53.9407 19.8588C55.5719 22.1553 57.2017 24.4528 58.8318 26.7498C58.8571 26.7855 58.8812 26.8225 58.9103 26.8653C58.8593 26.8956 58.8097 26.8819 58.7636 26.8819C55.5874 26.8828 52.4112 26.8823 49.2351 26.8849C49.1354 26.8849 49.0765 26.856 49.0185 26.7721C48.35 25.8055 47.6768 24.8422 47.0044 23.8781C46.9735 23.8338 46.9374 23.7928 46.9036 23.7502C46.8644 23.6874 46.8277 23.6228 46.7854 23.5622C45.5848 21.8387 44.384 20.1151 43.1821 18.3925C42.8108 17.8608 42.4358 17.3314 42.0625 16.8011C42.0625 16.7906 42.0625 16.7802 42.0625 16.7699C42.0875 16.7392 42.1143 16.7101 42.137 16.6778C43.3598 14.9359 44.5829 13.1941 45.8046 11.4514C46.1889 10.9033 46.5693 10.3526 46.9514 9.80298C47.3751 9.20423 47.7991 8.60563 48.2223 8.00637C48.4109 7.739 48.6001 7.47183 48.7846 7.20148C48.8307 7.13401 48.8777 7.10284 48.9644 7.10303C52.1404 7.10564 55.3164 7.10531 58.4924 7.10531C58.5164 7.1055 58.5404 7.10745 58.5674 7.10862C58.5664 7.17362 58.5201 7.20903 58.4905 7.25153C56.302 10.3923 54.1124 13.5323 51.9229 16.6724C51.8891 16.7209 51.8538 16.7684 51.8193 16.8163C51.7522 16.8544 51.7163 16.9199 51.6741 16.9801C51.5327 17.1828 51.3914 17.3854 51.2487 17.5873C50.441 18.7293 49.633 19.8711 48.8251 21.0125C48.3738 21.65 47.9189 22.2847 47.4726 22.9254C47.3235 23.1395 47.1547 23.3409 47.0346 23.5746C47.0115 23.589 47.0047 23.6105 47.0071 23.636C46.9975 23.6462 46.9877 23.6563 46.9779 23.6662C46.9743 23.6676 46.9704 23.668 46.9674 23.6701C46.9656 23.6714 46.9655 23.6748 46.9646 23.6776C46.9687 23.6734 46.9728 23.6693 46.9769 23.6652C46.987 23.6555 46.997 23.6457 47.0071 23.636C47.0316 23.6252 47.0388 23.604 47.0402 23.5797C47.1298 23.5549 47.1913 23.4898 47.2571 23.4304C47.4701 23.2379 47.6826 23.045 47.8973 22.8547C48.3935 22.4152 48.8913 21.978 49.3875 21.5383C49.7651 21.2037 50.1405 20.8664 50.5181 20.5316C51.0177 20.0886 51.5185 19.6468 52.0192 19.2052C52.3157 18.9435 52.6132 18.683 52.9103 18.4219H52.9103Z" fill="white"/>
<path d="M42.0624 16.8008C42.4358 17.3312 42.8108 17.8604 43.182 18.3923C44.3839 20.1149 45.5847 21.8384 46.7853 23.562C46.8276 23.6226 46.8643 23.6871 46.9036 23.75C46.1956 24.7683 45.4869 25.7859 44.7807 26.8056C44.7384 26.8669 44.6917 26.8851 44.6209 26.8838C44.4174 26.8798 44.2139 26.8825 44.0104 26.8825C41.0419 26.8825 38.0734 26.8825 35.105 26.8825C35.0464 26.8825 34.9879 26.8825 34.9301 26.8825C34.9165 26.8272 34.9549 26.8026 34.9763 26.7725C37.3129 23.4788 39.6502 20.1854 41.9876 16.8922C42.0105 16.8602 42.0375 16.8311 42.0625 16.8008L42.0624 16.8008Z" fill="#DB8A3A"/>
<path d="M46.9514 9.80277C46.5692 10.3524 46.1888 10.9031 45.8046 11.4512C44.5829 13.1939 43.3598 14.9357 42.1369 16.6775C42.1142 16.7099 42.0875 16.739 42.0625 16.7697C41.686 16.2346 41.3075 15.7011 40.9332 15.1645C39.1002 12.5371 37.2682 9.90891 35.436 7.281C35.4021 7.23231 35.3687 7.18301 35.3354 7.13432C35.3625 7.08334 35.4076 7.10622 35.4421 7.10603C38.6078 7.10492 41.7737 7.10538 44.9395 7.10277C45.0321 7.10259 45.0803 7.13968 45.1296 7.21022C45.6943 8.01948 46.2615 8.82712 46.8284 9.63498C46.8682 9.69164 46.9104 9.74686 46.9514 9.80272L46.9514 9.80277Z" fill="#DB8A3A"/>
<path d="M47.0347 23.5742C47.1548 23.3405 47.3236 23.1391 47.4727 22.925C47.919 22.2843 48.3739 21.6496 48.8252 21.0122C49.6331 19.8707 50.4411 18.7289 51.2488 17.587C51.3915 17.3851 51.5328 17.1824 51.6742 16.9797C51.7164 16.9195 51.7523 16.8539 51.8194 16.8159C51.7975 16.8822 51.8555 16.9139 51.8842 16.9549C52.205 17.4113 52.5282 17.8658 52.8503 18.3211C52.8728 18.3528 52.8905 18.3881 52.9104 18.4216C52.6133 18.6827 52.3159 18.9432 52.0193 19.2049C51.5186 19.6465 51.0178 20.0883 50.5182 20.5313C50.1406 20.8661 49.7653 21.2034 49.3877 21.538C48.8915 21.9777 48.3937 22.4149 47.8975 22.8544C47.6827 23.0447 47.4702 23.2376 47.2573 23.4301C47.1915 23.4895 47.1299 23.5546 47.0404 23.5794L47.0347 23.5743V23.5742Z" fill="#34385F"/>
<path d="M47.0404 23.5793C47.039 23.6037 47.0318 23.6249 47.0073 23.6357C47.0048 23.6102 47.0117 23.5887 47.0348 23.5742L47.0404 23.5793V23.5793Z" fill="#34385F"/>
<path d="M47.0078 23.6357C46.9975 23.6456 46.9874 23.6555 46.9771 23.6655L46.978 23.6665C46.988 23.6563 46.998 23.6461 47.0078 23.6357Z" fill="#34385F"/>
<path d="M46.9771 23.665C46.973 23.6691 46.9689 23.6732 46.9648 23.6774C46.9657 23.6746 46.9658 23.6712 46.9676 23.6699C46.9706 23.6678 46.9745 23.6673 46.9781 23.666L46.9771 23.665H46.9771Z" fill="#34385F"/>
</g>
<defs>
<clipPath id="clip0_1_14">
<rect width="146" height="32.3936" fill="white" transform="translate(0 0.976562)"/>
</clipPath>
</defs>
</svg>
