<svg width="19" height="20" viewBox="0 0 19 20" fill="none" xmlns="http://www.w3.org/2000/svg">
<g clip-path="url(#clip0_1_53706)">
<path fill-rule="evenodd" clip-rule="evenodd" d="M9 3.30011C9 5.73447 8.99182 5.76447 8.25 6.04538C6.74209 6.61674 5.45455 8.38293 5.45455 9.8802C5.45455 11.0295 6.50455 12.7152 7.60527 13.334C11.5244 15.5366 15.5037 10.7876 12.6155 7.35502C12.216 6.8802 11.4845 6.32275 10.9901 6.11629L10.0909 5.74047V3.28975C10.0909 1.02065 10.0505 0.838745 9.54545 0.838745C9.04036 0.838745 9 1.02065 9 3.30011ZM4.15664 3.70947C3.53864 4.23829 2.68827 5.37338 2.26664 6.2322C1.62027 7.54838 1.5 8.13556 1.5 9.97511C1.5 11.8837 1.60118 12.3397 2.30891 13.6174C2.754 14.4208 3.64364 15.5409 4.28618 16.1063C5.19327 16.9048 5.45455 17.3251 5.45455 17.9867C5.45455 18.7138 5.55464 18.8387 6.13636 18.8387C6.76227 18.8387 6.81818 18.7384 6.81818 17.615C6.81818 16.4892 6.73309 16.3373 5.75645 15.7209C3.89755 14.5474 2.65009 12.3165 2.62009 10.1115C2.59064 7.97493 3.31745 6.30856 4.94045 4.79029C5.75291 4.03047 6.25009 3.35493 6.16336 3.12884C5.92827 2.51656 5.35691 2.68184 4.15664 3.70947ZM12.9725 3.2082C12.867 3.48365 12.9589 3.75938 13.2019 3.89547C14.2295 4.47065 15.204 5.52829 15.8239 6.7422C16.4517 7.97138 16.5 8.34911 16.5 12.0206V15.9751L14.5227 16.0553L12.5455 16.1355V17.4871C12.5455 18.6568 12.6188 18.8387 13.0909 18.8387C13.491 18.8387 13.6364 18.6568 13.6364 18.1569C13.6364 17.5231 13.7665 17.3387 15 17.3387C15.9425 17.3387 17.5 17.3387 17.7728 17.0587V16.3087V11.789C17.6836 7.65447 17.6824 7.41556 17 6.11629C16.2451 4.67847 14.1851 2.74784 13.5284 2.74784C13.32 2.74784 13.0699 2.95484 12.9725 3.2082ZM11.4755 7.90865C12.6191 9.0522 12.6461 10.6209 11.5421 11.789C10.7002 12.6797 9.67664 12.9009 8.55845 12.4337C5.733 11.2531 6.501 7.11147 9.54545 7.11147C10.434 7.11147 10.8502 7.28356 11.4755 7.90865Z" fill="white"/>
</g>
<defs>
<clipPath id="clip0_1_53706">
<rect width="19" height="19" fill="white" transform="translate(0 0.5)"/>
</clipPath>
</defs>
</svg>
