<svg width="146" height="34" viewBox="0 0 146 34" fill="none" xmlns="http://www.w3.org/2000/svg">
<g clip-path="url(#clip0_1_53695)">
<path d="M9.59052 5.27357H14.3692V0.803192H0.000183105V5.27357H4.81187V26.7115H9.59052V5.27357ZM32.154 9.5017C30.1721 7.51973 27.8048 6.5178 25.0521 6.5178C22.2113 6.5178 19.7999 7.51973 17.818 9.57882C15.8471 11.6378 14.8341 14.1262 14.8341 17.0441C14.8341 19.9179 15.8471 22.3623 17.818 24.3442C19.7999 26.3591 22.2553 27.3722 25.0851 27.3722C27.1881 27.3722 29.126 26.7115 30.8767 25.4343C32.6275 24.146 33.8276 22.5604 34.4112 20.5786H29.2802C28.2342 22.2852 26.7917 23.133 24.931 23.133C23.7308 23.133 22.6738 22.7477 21.7048 21.9769C20.7359 21.1952 20.0752 20.2262 19.7669 19.0591H34.8406C35.0278 18.1672 35.1049 17.3854 35.1049 16.7248C35.1049 13.9281 34.1359 11.5277 32.154 9.50179L32.154 9.5017ZM21.5947 11.9901C22.5966 11.1753 23.7638 10.7459 25.1291 10.7459C26.4835 10.7459 27.6506 11.1753 28.6195 11.9901C29.5885 12.8049 30.2161 13.928 30.5684 15.3264H19.6127C19.921 13.928 20.5816 12.849 21.5947 11.9901H21.5947ZM66.2234 17.6166L72.8298 26.7115H78.6876L70.8039 16.8018L77.7957 7.28857H72.4004L66.2233 16.4165V0.803239H61.5218V26.7115H66.2233V17.6167L66.2234 17.6166ZM96.3636 24.3442C98.3456 22.3182 99.3585 19.8739 99.3585 17.0001C99.3585 14.1262 98.3456 11.6819 96.3636 9.65588C94.3817 7.64093 91.9372 6.62795 89.0965 6.62795C86.2227 6.62795 83.7783 7.64093 81.7634 9.65588C79.7043 11.7149 78.6913 14.1703 78.6913 17.0001C78.6913 19.8408 79.7043 22.2852 81.7634 24.3002C83.7783 26.3591 86.1897 27.3722 89.0194 27.3722C91.8932 27.3722 94.3486 26.3591 96.3635 24.3442H96.3636ZM92.9833 12.6839C94.1064 13.928 94.6569 15.3704 94.6569 17.0771C94.6569 18.7838 94.1064 20.2262 93.0273 21.3933C91.9372 22.5605 90.616 23.133 89.0635 23.133C87.4669 23.133 86.1125 22.5604 85.0225 21.3933C83.9324 20.2262 83.3929 18.7507 83.3929 17.0001C83.3929 15.3264 83.9324 13.895 85.0555 12.6839C86.1896 11.4837 87.5109 10.8671 89.0635 10.8671C90.5719 10.8671 91.8932 11.4837 92.9833 12.6839ZM119.354 24.3442C121.336 22.3182 122.349 19.8739 122.349 17.0001C122.349 14.1262 121.336 11.6819 119.354 9.65588C117.372 7.64093 114.928 6.62795 112.087 6.62795C109.213 6.62795 106.769 7.64093 104.754 9.65588C102.695 11.7149 101.682 14.1703 101.682 17.0001C101.682 19.8408 102.695 22.2852 104.754 24.3002C106.769 26.3591 109.18 27.3722 112.01 27.3722C114.884 27.3722 117.339 26.3591 119.354 24.3442H119.354ZM115.974 12.6839C117.097 13.928 117.647 15.3704 117.647 17.0771C117.647 18.7838 117.097 20.2262 116.018 21.3933C114.928 22.5605 113.606 23.133 112.054 23.133C110.457 23.133 109.103 22.5604 108.013 21.3933C106.923 20.2262 106.383 18.7507 106.383 17.0001C106.383 15.3264 106.923 13.895 108.046 12.6839C109.18 11.4837 110.501 10.8671 112.054 10.8671C113.562 10.8671 114.884 11.4837 115.974 12.6839ZM130.343 24.8838C131.312 25.8197 132.248 26.4803 133.095 26.8326C133.998 27.174 135.044 27.3722 136.289 27.3722C138.964 27.3722 141.298 26.3591 143.159 24.3442C145.064 22.3182 146 19.8408 146 16.9229C146 14.0051 145.064 11.5607 143.203 9.57882C141.376 7.59685 139.085 6.6279 136.322 6.6279C133.679 6.6279 131.543 7.59685 129.99 9.57882V7.28857H125.641V33.1969H130.343V24.8838H130.343ZM139.669 12.6508C140.748 13.851 141.298 15.2934 141.298 17.0001C141.298 18.7067 140.748 20.1491 139.669 21.3493C138.535 22.5604 137.213 23.133 135.661 23.133C134.075 23.133 132.754 22.5604 131.62 21.3493C130.541 20.1821 129.99 18.7067 129.99 17.0001C129.99 15.2934 130.541 13.8179 131.62 12.6508C132.754 11.4507 134.075 10.8671 135.705 10.8671C137.213 10.8671 138.535 11.4507 139.669 12.6508Z" fill="white"/>
<path d="M52.9105 18.2484C53.2541 18.7273 53.5996 19.2048 53.9409 19.6852C55.572 21.9817 57.2019 24.2792 58.832 26.5762C58.8573 26.612 58.8813 26.6489 58.9104 26.6917C58.8594 26.7221 58.8098 26.7084 58.7637 26.7084C55.5875 26.7092 52.4114 26.7087 49.2352 26.7113C49.1356 26.7113 49.0766 26.6824 49.0186 26.5985C48.3501 25.6319 47.6769 24.6686 47.0045 23.7045C46.9737 23.6603 46.9376 23.6193 46.9038 23.5767C46.8646 23.5138 46.8278 23.4493 46.7855 23.3887C45.5849 21.6651 44.3842 19.9416 43.1822 18.219C42.811 17.6872 42.436 17.1579 42.0627 16.6275C42.0627 16.6171 42.0627 16.6066 42.0627 16.5963C42.0877 16.5656 42.1144 16.5365 42.1371 16.5042C43.36 14.7624 44.5831 13.0205 45.8048 11.2778C46.1891 10.7297 46.5694 10.179 46.9516 9.62943C47.3752 9.03068 47.7993 8.43207 48.2224 7.83281C48.4111 7.56545 48.6002 7.29827 48.7847 7.02793C48.8308 6.96046 48.8778 6.92929 48.9645 6.92947C52.1406 6.93208 55.3166 6.93176 58.4926 6.93176C58.5166 6.93194 58.5406 6.9339 58.5676 6.93507C58.5666 7.00007 58.5202 7.03548 58.4906 7.07797C56.3021 10.2187 54.1126 13.3588 51.923 16.4988C51.8892 16.5474 51.854 16.5949 51.8195 16.6427C51.7523 16.6808 51.7164 16.7463 51.6743 16.8065C51.5328 17.0092 51.3915 17.2119 51.2488 17.4138C50.4412 18.5557 49.6332 19.6975 48.8252 20.839C48.374 21.4765 47.9191 22.1111 47.4727 22.7518C47.3237 22.9659 47.1549 23.1673 47.0347 23.401C47.0117 23.4154 47.0048 23.4369 47.0073 23.4625C46.9976 23.4726 46.9878 23.4827 46.9781 23.4927C46.9744 23.494 46.9706 23.4945 46.9676 23.4966C46.9658 23.4979 46.9656 23.5013 46.9648 23.5041C46.9688 23.4999 46.9729 23.4957 46.977 23.4917C46.9871 23.4819 46.9971 23.4721 47.0072 23.4625C47.0317 23.4517 47.039 23.4304 47.0404 23.4061C47.1299 23.3813 47.1915 23.3163 47.2573 23.2569C47.4703 23.0643 47.6827 22.8714 47.8975 22.6812C48.3937 22.2417 48.8915 21.8044 49.3877 21.3648C49.7653 21.0301 50.1406 20.6929 50.5182 20.358C51.0178 19.9151 51.5186 19.4733 52.0193 19.0317C52.3159 18.77 52.6133 18.5095 52.9104 18.2484H52.9105Z" fill="white"/>
<path d="M42.0627 16.6275C42.436 17.1578 42.8111 17.6871 43.1823 18.2189C44.3842 19.9415 45.585 21.6651 46.7856 23.3886C46.8278 23.4492 46.8646 23.5138 46.9038 23.5766C46.1958 24.5949 45.4872 25.6126 44.781 26.6322C44.7387 26.6935 44.6919 26.7118 44.6212 26.7105C44.4177 26.7064 44.2142 26.7092 44.0107 26.7092C41.0421 26.7092 38.0737 26.7092 35.1053 26.7092C35.0467 26.7092 34.9882 26.7092 34.9304 26.7092C34.9168 26.6538 34.9552 26.6293 34.9766 26.5992C37.3131 23.3055 39.6505 20.012 41.9879 16.7189C42.0108 16.6868 42.0377 16.6578 42.0628 16.6274L42.0627 16.6275Z" fill="#D47E28"/>
<path d="M46.9517 9.62934C46.5695 10.1789 46.1891 10.7296 45.8048 11.2777C44.5831 13.0204 43.36 14.7623 42.1372 16.5041C42.1145 16.5365 42.0877 16.5656 42.0627 16.5962C41.6862 16.0612 41.3078 15.5276 40.9335 14.9911C39.1005 12.3637 37.2685 9.73548 35.4363 7.10757C35.4023 7.05888 35.369 7.00958 35.3357 6.96089C35.3628 6.90991 35.4079 6.93279 35.4423 6.9326C38.608 6.93148 41.7739 6.93195 44.9398 6.92934C45.0324 6.92915 45.0806 6.96624 45.1299 7.03679C45.6945 7.84605 46.2617 8.65368 46.8286 9.46155C46.8685 9.51821 46.9107 9.57343 46.9516 9.62929L46.9517 9.62934Z" fill="#D47E28"/>
<path d="M47.0348 23.4011C47.1549 23.1673 47.3237 22.9659 47.4728 22.7518C47.9191 22.1112 48.374 21.4764 48.8253 20.839C49.6332 19.6975 50.4412 18.5558 51.2489 17.4138C51.3916 17.2119 51.5329 17.0092 51.6743 16.8065C51.7165 16.7463 51.7524 16.6808 51.8195 16.6428C51.7976 16.7091 51.8556 16.7408 51.8843 16.7818C52.2052 17.2381 52.5283 17.6926 52.8504 18.148C52.873 18.1797 52.8906 18.2149 52.9105 18.2484C52.6134 18.5095 52.316 18.7701 52.0194 19.0317C51.5187 19.4734 51.0179 19.9151 50.5183 20.3581C50.1407 20.6929 49.7654 21.0302 49.3878 21.3648C48.8916 21.8045 48.3938 22.2418 47.8976 22.6812C47.6828 22.8715 47.4703 23.0644 47.2574 23.2569C47.1916 23.3164 47.13 23.3814 47.0405 23.4062L47.0348 23.4011V23.4011Z" fill="#34385F"/>
<path d="M47.0405 23.4061C47.0391 23.4304 47.0318 23.4517 47.0074 23.4625C47.0049 23.437 47.0118 23.4154 47.0348 23.401L47.0405 23.4061V23.4061Z" fill="#34385F"/>
<path d="M47.0079 23.4625C46.9976 23.4723 46.9875 23.4823 46.9772 23.4922L46.9782 23.4932C46.9881 23.4831 46.9981 23.4728 47.0079 23.4625Z" fill="#34385F"/>
<path d="M46.9771 23.4917C46.973 23.4957 46.9689 23.4999 46.9649 23.5041C46.9657 23.5013 46.9659 23.4979 46.9677 23.4966C46.9707 23.4944 46.9745 23.494 46.9782 23.4926L46.9772 23.4917H46.9771Z" fill="#34385F"/>
</g>
<defs>
<clipPath id="clip0_1_53695">
<rect width="146" height="32.3936" fill="white" transform="translate(0 0.803192)"/>
</clipPath>
</defs>
</svg>
